<?xml version="1.0" encoding="UTF-8"?>
<!-- Created with Inkscape (http://www.inkscape.org/) -->
<svg width="174.19mm" height="53.081mm" version="1.1" viewBox="0 0 174.19 53.081" xml:space="preserve" xmlns="http://www.w3.org/2000/svg"><g transform="translate(9.9999 -95.554)"><g transform="matrix(.28421 0 0 .27766 -21.296 93.152)"><g><g fill="#1a5333"><path d="m77.946 152.83c0.54278 5.3276 1.0451 7.9737 4.2329 11.295 2.5962 2.0786 5.9185 3.7537 11.857 3.9756l-0.0266 3.7841-33.9-0.0992c0.97561-0.79597 2.4111-2.3201 4.1341-4.2995 2.6308-1.4778 5.2236-3.2268 7.4249-7.7721 2.1394-2.9979 4.1957-4.7481 6.2777-6.8844z" style="paint-order:stroke fill markers"/><path d="m171.77 45.976 16.867-0.16319-27.028 26.595z" style="paint-order:stroke fill markers"/><path d="m171.37 87.557 27.502-28.999 0.0935 21.235c-7.0847 0.46283-11.18 6.5955-14.686 13.845-3.7508 7.0294-7.3694 18.237-11.787 21.889l-1.4032-1.2161z" style="paint-order:stroke fill markers"/><path d="m171.27 128.99c5.6798 1.1212 12.504-3.0754 18.322-15.015 6.9428-15.775 6.3863-13.091 9.2604-18.852v42.995l-27.715-0.9273z" style="paint-order:stroke fill markers"/><path d="m171.14 137.04-0.18492 22.316c-0.43556 6.1443-4.384 8.8466-13.658 8.7464l4.1e-4 3.695 55.425-0.0468 6e-3 -3.7803c-9.9784 0.52682-13.114-3.4209-13.611-9.3077l-0.26531-21.168z" style="paint-order:stroke fill markers"/></g><path d="m199.65 83.018c4.4266 0.31173 8.7929 2.0887 13.69 17.791 2.1426 6.0767 7.1015 21.686 10.826 21.636 1.8139 2e-3 3.6962-3.0061 10.672-16.014 3.3372-5.489 8.3996-6.7466 12.171-6.5484l0.0661 6.2177c-4.206-0.0841-7.5573 4.1553-10.534 10.22-2.3168 4.9408-5.6756 11.624-12.353 12.865-8.2549 0.0866-13.828-17.834-15.147-21.696-2.8977-8.6969-6.4303-17.65-9.2604-17.926z" fill="#57909a" style="paint-order:stroke fill markers"/><path d="m154.93 105.51 4.6964-4.6302c2.8863 5.7739 5.3503 11.96 10.071 17.033 3.796 3.8812 7.8862-2.9084 7.8862-2.9084l13.729-26.622c1.6151-2.4952 4.1631-5.3457 8.4005-5.3578l0.0894 6.5457c-0.86259-5e-3 -1.9759 0.58933-4.1264 3.9673-4.1791 7.4805-8.3592 18.879-14.221 27.087-5.2006 5.6666-10.233 6.7794-15.081 2.8774-6.3509-6.644-8.3363-12.228-11.443-17.992z" fill="#57909a" style="paint-order:stroke fill markers"/><path d="m233.39 9.2609-64.078 62.955 4.6772 4.6772 62.236-64.976c1.8759-2.5436-1.3473-4.2304-2.8352-2.6563z" style="paint-order:stroke fill markers"/><path d="m169.45 72.083-38.768 38.113c-1.2924 1.3508-2.7513 1.156-3.9756 0.0468l-4.9578-5.6594-5.6594 5.4723c2.2836 2.4343 4.0366 5.4939 7.0392 7.3198 5.6426 3.523 9.7114 1.7802 13.307-1.7072l37.781-39.006z" style="paint-order:stroke fill markers"/><path d="m103.55 122.36 21.001 48.924c1.1361 1.717 3.9594 1.5882 4.5837-0.0468l23.854-61.692-0.93544-2.1515-6.4546 6.969-7.3432 18.896-4.0827-9.3429c-12.668 2.0343-15.312-2.3796-22.206-10.24z" fill="#1a5333" style="paint-order:stroke fill markers"/><g><path d="m41.347 161.55c-5.6454 8.2451 5.0291 16.016 10.617 9.8222l21.047-21.375-11.833-8.3254z" style="paint-order:stroke fill markers"/><path d="m61.038 141.81 11.708 8.4648 4.9425-5.0975c0.93582-0.77553 2.1575-3.053 0.8419-4.9111l-6.1739-5.5659c-1.7442-1.1396-3.5879-0.65303-5.5191 1.2628z" style="paint-order:stroke fill markers"/><path d="m72.247 134.81 32.213-32.279 6.0193 5.1594-32.345 32.874z" style="paint-order:stroke fill markers"/><path d="m110.42 107.73c1.4559-1.0864 2.2345-1.2259 3.6194 0.0559l2.2242 2.4143 5.8208-5.2586-3.3404-3.5057c-1.2405-1.9124-8.0584-5.3182-12.932-0.26458l-1.8521 1.8521z" style="paint-order:stroke fill markers"/></g><path d="m123.64 98.494c-6.5065-4.7181-11.882-10.58-27.781 4.8948l-18.124-44.053 0.06615-13.428 23.945 0.06614z" fill="#1a5333" style="paint-order:stroke fill markers"/><path d="m80.045 45.926-21.229-0.11292v3.6248c-0.94836 0.07958 11.761-1.2449 13.166 8.9335l0.28063 68.895 5.1449-5.5659 0.32899-62.398z" fill="#1a5333" style="paint-order:stroke fill markers"/></g></g><g transform="matrix(.63305 0 0 .5698 -160.38 49.795)" stroke-width=".26474" style="inline-size:181.289;white-space:pre" aria-label="Maestro
Manager
"><path d="m359.68 121.86-12.998-28.302v22.473q0 3.1006 0.66973 3.8695 0.91777 1.0418 2.9022 1.0418h1.1906v0.91777h-11.708v-0.91777h1.1906q2.1332 0 3.0262-1.2898 0.5457-0.79375 0.5457-3.6215v-21.977q0-2.2324-0.4961-3.2246-0.34726-0.71934-1.2898-1.1906-0.91777-0.49609-2.9766-0.49609v-0.91777h9.525l12.204 26.318 12.005-26.318h9.525v0.91777h-1.1658q-2.158 0-3.051 1.2898-0.54571 0.79375-0.54571 3.6215v21.977q0 3.1006 0.69453 3.8695 0.91778 1.0418 2.9022 1.0418h1.1658v0.91777h-14.288v-0.91777h1.1906q2.158 0 3.0262-1.2898 0.5457-0.79375 0.5457-3.6215v-22.473l-12.973 28.302zm38.844-3.2742q-3.4975 2.7037-4.3904 3.1254-1.3395 0.62011-2.8525 0.62011-2.3564 0-3.8943-1.6123-1.5131-1.6123-1.5131-4.2416 0-1.6619 0.74414-2.8774 1.017-1.6867 3.5223-3.175 2.5301-1.4883 8.384-3.6215v-0.89297q0-3.3982-1.0914-4.6633-1.0666-1.265-3.1254-1.265-1.5627 0-2.4805 0.84336-0.94258 0.84336-0.94258 1.9348l0.0496 1.4387q0 1.141-0.59531 1.7611-0.57051 0.62012-1.5131 0.62012-0.91777 0-1.5131-0.64493-0.57051-0.64492-0.57051-1.7611 0-2.1332 2.1828-3.9191 2.1828-1.7859 6.1268-1.7859 3.0262 0 4.9609 1.017 1.4635 0.76894 2.158 2.4061 0.44649 1.0666 0.44649 4.3656v7.7142q0 3.2494 0.12402 3.9936 0.12403 0.71933 0.39688 0.96738 0.29765 0.24805 0.66972 0.24805 0.39688 0 0.69454-0.17364 0.52089-0.32246 2.0092-1.8107v1.3891q-2.7781 3.7207-5.3082 3.7207-1.2154 0-1.9348-0.84336-0.71934-0.84336-0.74414-2.8773zm0-1.6123v-8.6568q-3.7455 1.4883-4.8369 2.1084-1.9596 1.0914-2.8029 2.282-0.84336 1.1906-0.84336 2.6045 0 1.7859 1.0666 2.9766 1.0666 1.1658 2.4557 1.1658 1.8852 0 4.9609-2.4805zm13.494-9.277q-0.0248 5.0602 2.4557 7.9375 2.4805 2.8773 5.8291 2.8773 2.2324 0 3.8695-1.2154 1.6619-1.2402 2.7781-4.2168l0.76894 0.4961q-0.52089 3.3982-3.0262 6.2012-2.5053 2.7781-6.2756 2.7781-4.0928 0-7.0197-3.175-2.9022-3.1998-2.9022-8.5824 0-5.8291 2.9766-9.0785 3.0014-3.2742 7.5158-3.2742 3.8199 0 6.2756 2.5301 2.4557 2.5053 2.4557 6.7221zm0-1.4387h10.517q-0.12402-2.1828-0.52089-3.0758-0.62012-1.3891-1.8604-2.1828-1.2154-0.79375-2.5549-0.79375-2.0588 0-3.6959 1.6123-1.6123 1.5875-1.8852 4.44zm33.412-7.7887v7.7391h-0.81856q-0.94258-3.6463-2.4309-4.9609-1.4635-1.3146-3.7455-1.3146-1.7363 0-2.8029 0.91777-1.0666 0.91778-1.0666 2.034 0 1.3891 0.79375 2.3812 0.76895 1.017 3.1254 2.158l3.6215 1.7611q5.0354 2.4557 5.0354 6.474 0 3.1006-2.3564 5.0106-2.3316 1.8852-5.2338 1.8852-2.0836 0-4.7625-0.74414-0.81855-0.24804-1.3394-0.24804-0.57051 0-0.89297 0.64492h-0.81855v-8.1111h0.81855q0.69453 3.4726 2.6541 5.2338 1.9596 1.7611 4.3904 1.7611 1.7115 0 2.7781-0.99219 1.0914-1.017 1.0914-2.4309 0-1.7115-1.2154-2.8773-1.1906-1.1658-4.7873-2.9518t-4.7129-3.2246q-1.1162-1.4139-1.1162-3.5719 0-2.8029 1.91-4.6881 1.9348-1.8852 4.9857-1.8852 1.3395 0 3.2494 0.57051 1.265 0.37207 1.6867 0.37207 0.39687 0 0.62011-0.17363t0.5209-0.76894zm11.683-6.7965v7.4662h5.3082v1.7363h-5.3082v14.734q0 2.2076 0.62012 2.9766 0.64492 0.76894 1.6371 0.76894 0.81856 0 1.5875-0.49609 0.76895-0.5209 1.1906-1.5131h0.96738q-0.86816 2.4309-2.4557 3.6711-1.5875 1.2154-3.2742 1.2154-1.141 0-2.2324-0.62011-1.0914-0.64493-1.6123-1.8108-0.5209-1.1906-0.5209-3.6463v-15.28h-3.5967v-0.81856q1.3643-0.5457 2.7781-1.8355 1.4387-1.3146 2.5549-3.1006 0.57051-0.94258 1.5875-3.4479zm14.163 6.7965v5.1098q2.8525-5.1098 5.8539-5.1098 1.3643 0 2.2572 0.84336 0.89297 0.81856 0.89297 1.91 0 0.96739-0.64492 1.6371-0.64493 0.66973-1.5379 0.66973-0.86816 0-1.9596-0.84336-1.0666-0.86816-1.5875-0.86816-0.44648 0-0.96738 0.49609-1.1162 1.017-2.3068 3.3486v10.889q0 1.8852 0.47129 2.8525 0.32246 0.66973 1.141 1.1162 0.81856 0.44648 2.3564 0.44648v0.89297h-11.633v-0.89297q1.7363 0 2.5797-0.5457 0.62011-0.39687 0.86816-1.265 0.12402-0.42168 0.12402-2.406v-8.8057q0-3.9688-0.17363-4.7129-0.14883-0.76894-0.59531-1.1162-0.42168-0.34726-1.0666-0.34726-0.76895 0-1.7363 0.37207l-0.24805-0.89297 6.8709-2.7781zm21.382 0q5.1594 0 8.2848 3.9191 2.6541 3.3486 2.6541 7.6895 0 3.051-1.4635 6.1764-1.4635 3.1254-4.0432 4.7129-2.5549 1.5875-5.7051 1.5875-5.1346 0-8.1607-4.0928-2.5549-3.4478-2.5549-7.7391 0-3.1254 1.5379-6.2012 1.5627-3.1006 4.0928-4.5641 2.5301-1.4883 5.3578-1.4883zm-0.76894 1.6123q-1.3146 0-2.6541 0.79375-1.3146 0.76894-2.1332 2.7285-0.81855 1.9596-0.81855 5.0354 0 4.9609 1.9596 8.5576 1.9844 3.5967 5.209 3.5967 2.4061 0 3.9688-1.9844 1.5627-1.9844 1.5627-6.8213 0-6.0524-2.6045-9.525-1.7611-2.3812-4.4896-2.3812z"/><path d="m352.65 162.5-12.998-28.302v22.473q0 3.1006 0.66973 3.8695 0.91777 1.0418 2.9022 1.0418h1.1906v0.91777h-11.708v-0.91777h1.1906q2.1332 0 3.0262-1.2898 0.5457-0.79375 0.5457-3.6215v-21.977q0-2.2324-0.49609-3.2246-0.34727-0.71934-1.2898-1.1906-0.91777-0.49609-2.9766-0.49609v-0.91778h9.525l12.204 26.318 12.005-26.318h9.525v0.91778h-1.1658q-2.158 0-3.051 1.2898-0.54571 0.79375-0.54571 3.6215v21.977q0 3.1006 0.69454 3.8695 0.91777 1.0418 2.9021 1.0418h1.1658v0.91777h-14.288v-0.91777h1.1906q2.158 0 3.0262-1.2898 0.5457-0.79375 0.5457-3.6215v-22.473l-12.973 28.302zm38.844-3.2742q-3.4975 2.7037-4.3904 3.1254-1.3395 0.62012-2.8525 0.62012-2.3564 0-3.8943-1.6123-1.5131-1.6123-1.5131-4.2416 0-1.6619 0.74414-2.8773 1.017-1.6867 3.5223-3.175 2.5301-1.4883 8.384-3.6215v-0.89297q0-3.3982-1.0914-4.6633-1.0666-1.265-3.1254-1.265-1.5627 0-2.4805 0.84336-0.94258 0.84336-0.94258 1.9348l0.0496 1.4387q0 1.141-0.59531 1.7611-0.57051 0.62012-1.5131 0.62012-0.91777 0-1.5131-0.64492-0.57051-0.64492-0.57051-1.7611 0-2.1332 2.1828-3.9191 2.1828-1.7859 6.1268-1.7859 3.0262 0 4.9609 1.017 1.4635 0.76895 2.158 2.4061 0.44648 1.0666 0.44648 4.3656v7.7143q0 3.2494 0.12402 3.9936 0.12403 0.71934 0.39688 0.96739 0.29766 0.24804 0.66973 0.24804 0.39687 0 0.69453-0.17363 0.5209-0.32246 2.0092-1.8107v1.3891q-2.7781 3.7207-5.3082 3.7207-1.2154 0-1.9348-0.84336-0.71934-0.84336-0.74414-2.8773zm0-1.6123v-8.6568q-3.7455 1.4883-4.8369 2.1084-1.9596 1.0914-2.8029 2.282-0.84336 1.1906-0.84336 2.6045 0 1.7859 1.0666 2.9766 1.0666 1.1658 2.4557 1.1658 1.8852 0 4.9609-2.4805zm16.297-13.692q3.9936-4.8121 7.615-4.8121 1.8604 0 3.1998 0.94258 1.3395 0.91777 2.1332 3.051 0.5457 1.4883 0.5457 4.5641v9.6986q0 2.158 0.34726 2.927 0.27286 0.62012 0.86817 0.96738 0.62012 0.34727 2.2572 0.34727v0.89297h-11.237v-0.89297h0.47129q1.5875 0 2.2076-0.47129 0.64492-0.49609 0.89297-1.4387 0.0992-0.37207 0.0992-2.3316v-9.3018q0-3.1006-0.81855-4.4896-0.79375-1.4139-2.7037-1.4139-2.9518 0-5.8787 3.2246v11.981q0 2.3068 0.27285 2.8525 0.34727 0.71933 0.94258 1.0666 0.62012 0.32246 2.4805 0.32246v0.89297h-11.237v-0.89297h0.4961q1.7363 0 2.3316-0.86816 0.62012-0.89297 0.62012-3.3734v-8.4336q0-4.0928-0.19844-4.9857-0.17364-0.89297-0.57051-1.2154-0.37207-0.32246-1.017-0.32246-0.69453 0-1.6619 0.37207l-0.37207-0.89297 6.8461-2.7781h1.0666zm31.651 15.304q-3.4975 2.7037-4.3904 3.1254-1.3394 0.62012-2.8525 0.62012-2.3564 0-3.8943-1.6123-1.5131-1.6123-1.5131-4.2416 0-1.6619 0.74414-2.8773 1.017-1.6867 3.5223-3.175 2.5301-1.4883 8.384-3.6215v-0.89297q0-3.3982-1.0914-4.6633-1.0666-1.265-3.1254-1.265-1.5627 0-2.4805 0.84336-0.94258 0.84336-0.94258 1.9348l0.0496 1.4387q0 1.141-0.59531 1.7611-0.57051 0.62012-1.5131 0.62012-0.91777 0-1.5131-0.64492-0.5705-0.64492-0.5705-1.7611 0-2.1332 2.1828-3.9191 2.1828-1.7859 6.1268-1.7859 3.0262 0 4.9609 1.017 1.4635 0.76895 2.158 2.4061 0.44649 1.0666 0.44649 4.3656v7.7143q0 3.2494 0.12402 3.9936 0.12402 0.71934 0.39688 0.96739 0.29765 0.24804 0.66972 0.24804 0.39688 0 0.69453-0.17363 0.5209-0.32246 2.0092-1.8107v1.3891q-2.7781 3.7207-5.3082 3.7207-1.2154 0-1.9348-0.84336-0.71933-0.84336-0.74414-2.8773zm0-1.6123v-8.6568q-3.7455 1.4883-4.8369 2.1084-1.9596 1.0914-2.8029 2.282-0.84336 1.1906-0.84336 2.6045 0 1.7859 1.0666 2.9766 1.0666 1.1658 2.4557 1.1658 1.8852 0 4.9609-2.4805zm15.751-3.3982q-2.0836-1.017-3.1998-2.8277-1.1162-1.8356-1.1162-4.0432 0-3.3734 2.5301-5.8043 2.5549-2.4309 6.5236-2.4309 3.2494 0 5.6307 1.5875h4.8121q1.0666 0 1.2402 0.0744 0.17364 0.0496 0.24805 0.19844 0.14883 0.22324 0.14883 0.79375 0 0.64492-0.12402 0.89297-0.0744 0.12402-0.27286 0.19844-0.17363 0.0744-1.2402 0.0744h-2.9518q1.3891 1.7859 1.3891 4.5641 0 3.175-2.4308 5.4322-2.4309 2.2572-6.5236 2.2572-1.6867 0-3.4478-0.4961-1.0914 0.94258-1.4883 1.6619-0.37207 0.69453-0.37207 1.1906 0 0.42168 0.39687 0.81856 0.42168 0.39687 1.6123 0.5705 0.69453 0.0992 3.4727 0.17364 5.1098 0.12402 6.6228 0.34726 2.3068 0.32246 3.6711 1.7115 1.3891 1.3891 1.3891 3.423 0 2.8029-2.6293 5.2586-3.8695 3.6215-10.096 3.6215-4.7873 0-8.0863-2.158-1.8604-1.2402-1.8604-2.5797 0-0.59532 0.27285-1.1906 0.42168-0.91777 1.7363-2.5549 0.17363-0.22324 2.5301-2.6789-1.2898-0.76894-1.8356-1.3643-0.5209-0.62011-0.5209-1.3891 0-0.86816 0.69453-2.034 0.71934-1.1658 3.2742-3.299zm4.316-13.915q-1.8356 0-3.0758 1.4635-1.2402 1.4635-1.2402 4.4896 0 3.9191 1.6867 6.0772 1.2898 1.6371 3.2742 1.6371 1.8852 0 3.1006-1.4139 1.2154-1.4139 1.2154-4.44 0-3.944-1.7115-6.1764-1.265-1.6371-3.2494-1.6371zm-4.5641 22.2q-1.1658 1.265-1.7611 2.3564-0.59531 1.0914-0.59531 2.0092 0 1.1906 1.4387 2.0836 2.4805 1.5379 7.1686 1.5379 4.4648 0 6.5732-1.5875 2.1332-1.5627 2.1332-3.3486 0-1.2898-1.265-1.8356-1.2898-0.5457-5.1098-0.64492-5.5811-0.14883-8.5824-0.57051zm23.391-14.163q-0.0248 5.0602 2.4557 7.9375 2.4805 2.8774 5.8291 2.8774 2.2324 0 3.8695-1.2154 1.6619-1.2402 2.7781-4.2168l0.76894 0.49609q-0.52089 3.3982-3.0262 6.2012-2.5053 2.7781-6.2756 2.7781-4.0928 0-7.0197-3.175-2.9022-3.1998-2.9022-8.5824 0-5.8291 2.9766-9.0785 3.0014-3.2742 7.5158-3.2742 3.8199 0 6.2756 2.5301 2.4557 2.5053 2.4557 6.7221zm0-1.4387h10.517q-0.12402-2.1828-0.52089-3.0758-0.62012-1.3891-1.8604-2.1828-1.2154-0.79375-2.5549-0.79375-2.0588 0-3.6959 1.6123-1.6123 1.5875-1.8852 4.44zm25.375-7.7887v5.1098q2.8525-5.1098 5.8539-5.1098 1.3643 0 2.2572 0.84336 0.89297 0.81855 0.89297 1.91 0 0.96738-0.64492 1.6371-0.64493 0.66972-1.5379 0.66972-0.86816 0-1.9596-0.84335-1.0666-0.86817-1.5875-0.86817-0.44648 0-0.96738 0.4961-1.1162 1.017-2.3068 3.3486v10.889q0 1.8852 0.47128 2.8525 0.32247 0.66973 1.141 1.1162 0.81856 0.44648 2.3564 0.44648v0.89297h-11.633v-0.89297q1.7363 0 2.5797-0.5457 0.62012-0.39688 0.86817-1.265 0.12402-0.42168 0.12402-2.4061v-8.8057q0-3.9688-0.17363-4.7129-0.14883-0.76895-0.59531-1.1162-0.42168-0.34727-1.0666-0.34727-0.76895 0-1.7363 0.37207l-0.24805-0.89297 6.8709-2.7781z"/></g><text x="346.68402" y="-46.371742" fill="#000000" font-family="Serif" font-size="50.8px" stroke-width=".26458" xml:space="preserve"><tspan x="346.68402" y="-46.371742" stroke-width=".26458">  </tspan></text></g></svg>
