<?xml version="1.0" encoding="UTF-8" standalone="no"?>
<!-- Created with Inkscape (http://www.inkscape.org/) -->

<svg
   width="270.93524mm"
   height="215.37132mm"
   viewBox="0 0 270.93525 215.37132"
   version="1.1"
   id="svg1"
   xml:space="preserve"
   inkscape:version="1.4.2 (f4327f4, 2025-05-13)"
   sodipodi:docname="favicon.svg"
   xmlns:inkscape="http://www.inkscape.org/namespaces/inkscape"
   xmlns:sodipodi="http://sodipodi.sourceforge.net/DTD/sodipodi-0.dtd"
   xmlns="http://www.w3.org/2000/svg"
   xmlns:svg="http://www.w3.org/2000/svg"><sodipodi:namedview
     id="namedview1"
     pagecolor="#ffffff"
     bordercolor="#000000"
     borderopacity="0.25"
     inkscape:showpageshadow="2"
     inkscape:pageopacity="0.0"
     inkscape:pagecheckerboard="0"
     inkscape:deskcolor="#d1d1d1"
     inkscape:document-units="mm"
     inkscape:zoom="1.0040916"
     inkscape:cx="479.03995"
     inkscape:cy="408.82723"
     inkscape:window-width="1920"
     inkscape:window-height="1009"
     inkscape:window-x="-8"
     inkscape:window-y="55"
     inkscape:window-maximized="1"
     inkscape:current-layer="layer1"><sodipodi:guide
       position="135.468,0"
       orientation="215.371,0"
       id="guide103"
       inkscape:locked="false" /><sodipodi:guide
       position="0,71.7904"
       orientation="0,270.935"
       id="guide104"
       inkscape:locked="false" /><sodipodi:guide
       position="0,143.581"
       orientation="0,270.935"
       id="guide105"
       inkscape:locked="false" /></sodipodi:namedview><defs
     id="defs1" /><g
     inkscape:label="Camada 1"
     inkscape:groupmode="layer"
     id="layer1"
     transform="translate(47.052185,-1.2636186)"
     style="display:inline;opacity:1" /><g
     inkscape:groupmode="layer"
     id="layer3"
     inkscape:label="Camada 2"
     style="display:inline"><path
       style="display:inline;fill:#1a5333;fill-opacity:1;stroke:none;stroke-width:0;stroke-dasharray:none;stroke-opacity:1;paint-order:stroke fill markers"
       d="m 77.945816,152.82805 c 0.542782,5.32758 1.045052,7.97373 4.232881,11.29548 2.596202,2.07857 5.91852,3.75374 11.856747,3.97563 l -0.0266,3.78406 -33.899738,-0.0992 c 0.975606,-0.79597 2.411077,-2.32007 4.134115,-4.29948 2.630768,-1.47777 5.223558,-3.22681 7.424869,-7.77214 2.13945,-2.9979 4.195718,-4.74808 6.277726,-6.88435 z"
       id="path86"
       sodipodi:nodetypes="cccccccc" /><path
       style="display:inline;fill:#1a5333;fill-opacity:1;stroke:none;stroke-width:0;stroke-dasharray:none;stroke-opacity:1;paint-order:stroke fill markers"
       d="m 171.77091,45.976299 16.86736,-0.163186 -27.02843,26.595052 z"
       id="path87"
       sodipodi:nodetypes="cccc" /><path
       style="display:inline;fill:#1a5333;fill-opacity:1;stroke:none;stroke-width:0;stroke-dasharray:none;stroke-opacity:1;paint-order:stroke fill markers"
       d="m 171.37321,87.557495 27.50204,-28.998743 0.0935,21.234563 c -7.08473,0.46283 -11.17993,6.59548 -14.68646,13.84456 -3.75081,7.029385 -7.36939,18.236585 -11.78658,21.889375 l -1.40317,-1.21608 z"
       id="path88"
       sodipodi:nodetypes="ccccccc" /><path
       style="display:inline;fill:#1a5333;fill-opacity:1;stroke:none;stroke-width:0;stroke-dasharray:none;stroke-opacity:1;paint-order:stroke fill markers"
       d="m 171.26713,128.98766 c 5.67983,1.12122 12.50422,-3.07541 18.3224,-15.01511 6.94279,-15.775495 6.38628,-13.0912 9.26042,-18.851555 v 42.994775 l -27.71511,-0.9273 z"
       id="path89"
       sodipodi:nodetypes="cccccc" /><path
       style="display:inline;fill:#1a5333;fill-opacity:1;stroke:none;stroke-width:0;stroke-dasharray:none;stroke-opacity:1;paint-order:stroke fill markers"
       d="m 171.13718,137.03677 -0.18492,22.316 c -0.43556,6.1443 -4.384,8.8466 -13.65788,8.74639 l 4.1e-4,3.695 55.42502,-0.0468 0.006,-3.78027 c -9.9784,0.52682 -13.11414,-3.42092 -13.61071,-9.30767 l -0.26531,-21.16789 z"
       id="path90"
       sodipodi:nodetypes="ccccccccc" /><path
       style="display:inline;fill:#57909a;fill-opacity:1;stroke:none;stroke-width:0;stroke-dasharray:none;stroke-opacity:1;paint-order:stroke fill markers"
       d="m 199.64577,83.018375 c 4.42661,0.31173 8.79294,2.08872 13.69011,17.791155 2.14263,6.07668 7.10148,21.68649 10.8257,21.63591 1.81391,0.002 3.69621,-3.00611 10.6717,-16.01352 3.33715,-5.48904 8.39961,-6.746609 12.17083,-6.548429 l 0.0661,6.217699 c -4.20605,-0.0841 -7.55734,4.15528 -10.53373,10.21954 -2.31675,4.94078 -5.67559,11.6236 -12.35273,12.86536 -8.25486,0.0866 -13.82777,-17.83411 -15.1474,-21.69583 -2.89766,-8.696899 -6.43033,-17.650485 -9.26041,-17.925515 z"
       id="path91"
       sodipodi:nodetypes="ccccccccccc" /><path
       style="display:inline;fill:#57909a;fill-opacity:1;stroke:none;stroke-width:0;stroke-dasharray:none;stroke-opacity:1;paint-order:stroke fill markers"
       d="m 154.92911,105.50588 4.69636,-4.63021 c 2.88628,5.77388 5.35026,11.96036 10.0707,17.03255 3.79595,3.88115 7.88623,-2.9084 7.88623,-2.9084 l 13.72899,-26.621575 c 1.61509,-2.49523 4.1631,-5.34569 8.40053,-5.35781 l 0.0894,6.54572 c -0.86259,-0.005 -1.97588,0.58933 -4.12637,3.96734 -4.17914,7.480485 -8.35922,18.879355 -14.22136,27.086705 -5.20063,5.66657 -10.23338,6.77938 -15.08125,2.87735 -6.35091,-6.64398 -8.33628,-12.22848 -11.44319,-17.99167 z"
       id="path92"
       sodipodi:nodetypes="ccccccccccc" /><path
       style="display:inline;fill:#000000;fill-opacity:1;stroke:none;stroke-width:0;stroke-dasharray:none;stroke-opacity:1;paint-order:stroke fill markers"
       d="m 233.3931,9.2608877 -64.07786,62.9553383 4.67722,4.677219 62.2358,-64.976228 C 238.10413,9.3736527 234.881,7.6868415 233.3931,9.2608877 Z"
       id="path93"
       sodipodi:nodetypes="ccccc" /><path
       style="fill:#000000;fill-opacity:1;stroke:none;stroke-width:0;stroke-dasharray:none;stroke-opacity:1;paint-order:stroke fill markers"
       d="m 169.44933,72.082637 -38.7679,38.112583 c -1.29239,1.35083 -2.75127,1.15602 -3.97564,0.0468 l -4.95784,-5.65943 -5.65944,5.47234 c 2.28365,2.43428 4.03659,5.49393 7.03922,7.31985 5.6426,3.52303 9.71136,1.78018 13.30667,-1.70719 l 37.78139,-39.006425 z"
       id="path94"
       sodipodi:nodetypes="ccccccccc" /><path
       style="display:inline;fill:#1a5333;fill-opacity:1;stroke:none;stroke-width:0;stroke-dasharray:none;stroke-opacity:1;paint-order:stroke fill markers"
       d="m 103.55357,122.35598 21.0007,48.92369 c 1.13606,1.71699 3.9594,1.58817 4.58368,-0.0468 l 23.8538,-61.69249 -0.93544,-2.15152 -6.45456,6.96905 -7.34323,18.89596 -4.08266,-9.34294 c -12.66839,2.03431 -15.31189,-2.3796 -22.20613,-10.23973 z"
       id="path96"
       sodipodi:nodetypes="cccccccccc" /><path
       style="fill:#000000;fill-opacity:1;stroke:none;stroke-width:0;stroke-dasharray:none;stroke-opacity:1;paint-order:stroke fill markers"
       d="m 41.346594,161.55106 c -5.645423,8.24507 5.029114,16.01577 10.617282,9.82215 l 21.047477,-21.37488 -11.83336,-8.32544 z"
       id="path98"
       sodipodi:nodetypes="ccccc" /><path
       style="fill:#000000;fill-opacity:1;stroke:none;stroke-width:0;stroke-dasharray:none;stroke-opacity:1;paint-order:stroke fill markers"
       d="m 61.038452,141.8135 11.707569,8.46484 4.942549,-5.09754 c 0.935823,-0.77553 2.157482,-3.05303 0.841899,-4.91108 l -6.173926,-5.56588 c -1.744161,-1.13961 -3.587884,-0.65303 -5.519116,1.26285 z"
       id="path99"
       sodipodi:nodetypes="ccccccc" /><path
       style="fill:#000000;fill-opacity:1;stroke:none;stroke-width:0;stroke-dasharray:none;stroke-opacity:1;paint-order:stroke fill markers"
       d="m 72.246826,134.80849 32.213014,-32.27917 6.01927,5.15937 -32.345305,32.87448 z"
       id="path100" /><path
       style="fill:#000000;fill-opacity:1;stroke:none;stroke-width:0;stroke-dasharray:none;stroke-opacity:1;paint-order:stroke fill markers"
       d="m 110.4233,107.7321 c 1.45586,-1.08641 2.23449,-1.22594 3.61942,0.0559 l 2.22415,2.41433 5.82084,-5.2586 -3.34037,-3.50573 c -1.24051,-1.912409 -8.05838,-5.318235 -12.93151,-0.26458 l -1.85208,1.85209 z"
       id="path101"
       sodipodi:nodetypes="cccccccc" /><path
       style="fill:#1a5333;fill-opacity:1;stroke:none;stroke-width:0;stroke-dasharray:none;stroke-opacity:1;paint-order:stroke fill markers"
       d="m 123.64213,98.494425 c -6.50647,-4.71814 -11.88156,-10.58007 -27.781246,4.894795 L 77.73693,59.336096 l 0.06615,-13.427604 23.94478,0.06614 z"
       id="path102"
       sodipodi:nodetypes="cccccc" /><path
       style="display:inline;fill:#1a5333;fill-opacity:1;stroke:none;stroke-width:0;stroke-dasharray:none;stroke-opacity:1;paint-order:stroke fill markers"
       d="M 80.045459,45.926256 58.816,45.81334 v 3.624844 c -0.948363,0.07958 11.760668,-1.24491 13.166365,8.933482 l 0.280633,68.895394 5.144939,-5.56589 0.328993,-62.398144 z"
       id="path103"
       sodipodi:nodetypes="cccccccc" /></g></svg>
